<svg xmlns="http://www.w3.org/2000/svg" version="1.1" xmlns:xlink="http://www.w3.org/1999/xlink" xmlns:svgjs="http://svgjs.dev/svgjs" viewBox="0 0 5.201692891723823 4.929391854010303"><g transform="matrix(0.8537740908037795,0,0,0.8537740908037795,0.7842445698860906,2.940732523529591)"><g transform="matrix(1,0,0,1,0,0)" clip-path="url(#SvgjsClipPath3243)"><g clip-path="url(#SvgjsClipPath32419ddb42c2-1323-49e9-a10a-13b27a1e7bb9)"><path d=" M 2.1608425377526888 -0.168173174371836 L 1.8790546846082952 -0.44996102751620626 L 2.7623248758258256 -1.3336879251407703 L 2.7623248758258256 -1.3336879251407703 C 2.783079660850366 -1.3497778984950335 2.7952257681395305 -1.3745626104141715 2.7952257681395305 -1.4008237669758143 C 2.7952257681395305 -1.4270849235374574 2.783079660850366 -1.4518696354565954 2.7623248758258256 -1.467959608810859 L 2.478253490646248 -1.752487700397476 L 2.193725399059634 -2.0365590855770517 C 2.177991261809397 -2.05759186142246 2.1534121534905566 -2.070162861965537 2.127149228291921 -2.070609510353269 C 2.1008863030932607 -2.0710561587410012 2.0758939473428697 -2.059328210307945 2.0594537153895573 -2.038842617612257 L 1.22687793535358 -1.210377195239668 L 0.9446333758021744 -1.4926217547910796 L 1.9731362044587883 -2.5211245834476785 C 2.0123051147391524 -2.5673404034615928 2.0684453929278757 -2.5958221281731744 2.128873089259817 -2.600134791865792 L 3.0879565440461714 -2.600134791865792 C 3.150411844079528 -2.6071241669050798 3.2121956243766667 -2.5822390331742855 3.2523708505809727 -2.53391236284483 L 4.237486570568672 -1.5487966428571374 C 4.280032529673909 -1.514103227663815 4.304720835742172 -1.4621156684231091 4.304720835742172 -1.4072176566743906 C 4.304720835742172 -1.3523196449256722 4.280032529673909 -1.3003320856849665 4.237486570568672 -1.2656386704916436 C 4.2274375493517695 -1.2514058850841008 4.216126382572579 -1.2381076214383238 4.203690296447602 -1.225905213079066 L 3.303065261762526 -0.3252801783939807 L 3.303065261762526 -0.3252801783939807 L 3.303065261762526 -0.3252801783939807 L 3.2208581084951375 -0.24307302512657936 C 3.187736977447575 -0.20559109376856544 3.1421333169629917 -0.18140979336926355 3.0925236081165886 -0.17502377047745243 L 2.1622126569738236 -0.17502377047745243 Z" fill="#cc0000" transform="matrix(1,0,0,1,0,0)" fill-rule="evenodd"></path></g><g clip-path="url(#SvgjsClipPath32419ddb42c2-1323-49e9-a10a-13b27a1e7bb9)"><path d=" M 1.003091795903452 -0.2389626674632086 C 1.0391515496146375 -0.1932398553639545 1.0948487726377227 -0.16744728672706133 1.1530430606440434 -0.1695224318807762 C 1.2112373486504138 -0.17159757703449108 1.264955973044238 -0.20129179604439118 1.2976674284449745 -0.2494669148251547 L 2.3275403763226987 -1.277969743481754 L 2.045295816771293 -1.5602143030331652 L 1.2131767431423774 -0.7294653486253704 L 1.2131767431423774 -0.7271818165901649 C 1.1968142911477988 -0.705619853410707 1.1711557273214221 -0.6931463736329804 1.1440920129683652 -0.6935974355388645 C 1.1170282986153333 -0.6940484974447487 1.0917996527842269 -0.7073700973834336 1.0761648210300305 -0.7294653486253704 L 0.7920934358504531 -1.0135367338049464 L 0.5080220506708509 -1.2980648253915632 C 0.4872775560755752 -1.3140617819294913 0.4751265576629351 -1.3387761945682792 0.4751265576629351 -1.3649723140230865 C 0.4751265576629351 -1.391168433477894 0.4872775560755752 -1.4158828461166821 0.5080220506708509 -1.431879802654611 L 1.39357577392359 -2.317890232314381 L 1.1117879207792214 -2.6001347918657927 L 0.0303071489058456 -1.5186540199924234 C -0.017867969874913944 -1.485942564591703 -0.04756218888482233 -1.4322239401978694 -0.049637334038546546 -1.3740296521915236 C -0.051712479192270754 -1.3158353641851785 -0.025919910555373654 -1.2601381411620771 0.01980290154390056 -1.2240783874509022 Z" fill="#087bc4" transform="matrix(1,0,0,1,0,0)" fill-rule="evenodd"></path></g></g><g><path d=" M 0.2775 1.0485000000000002 Q 0.2775 1.038 0.2895 1.032 Q 0.3015 1.026 0.327 1.0215 Q 0.3855 1.0110000000000001 0.41475 0.9840000000000001 Q 0.444 0.9570000000000001 0.444 0.9045000000000001 L 0.444 0.3225000000000001 Q 0.444 0.2220000000000001 0.43725 0.18675000000000008 Q 0.4305 0.15150000000000008 0.41250000000000003 0.14850000000000008 Q 0.393 0.14400000000000013 0.36675 0.1432500000000001 Q 0.3405 0.14250000000000007 0.306 0.14250000000000007 L 0.23550000000000001 0.14250000000000007 Q 0.1965 0.14250000000000007 0.162 0.15750000000000008 Q 0.1275 0.1725000000000001 0.1125 0.20100000000000007 Q 0.10350000000000001 0.21900000000000008 0.08475 0.23850000000000005 Q 0.066 0.2580000000000001 0.051000000000000004 0.2580000000000001 Q 0.0405 0.2580000000000001 0.0405 0.23850000000000005 Q 0.0405 0.22350000000000014 0.048 0.20850000000000013 Q 0.069 0.16800000000000004 0.078 0.1342500000000001 Q 0.08700000000000001 0.10050000000000003 0.0945 0.051000000000000156 Q 0.099 0.01650000000000018 0.12 0.01650000000000018 Q 0.1245 0.01650000000000018 0.13725 0.03300000000000014 Q 0.15 0.0495000000000001 0.1575 0.06450000000000011 Q 0.1665 0.07950000000000013 0.19725 0.08700000000000008 Q 0.228 0.09450000000000014 0.2625 0.09450000000000014 L 0.7905 0.09450000000000014 Q 0.8835000000000001 0.09450000000000014 0.933 0.07200000000000006 Q 0.9420000000000001 0.06750000000000012 0.95925 0.054750000000000076 Q 0.9765 0.04200000000000004 0.9915 0.04200000000000004 Q 0.996 0.04200000000000004 0.999 0.05325000000000002 Q 1.002 0.06450000000000011 1.002 0.07650000000000012 Q 1.002 0.08250000000000013 0.996 0.11850000000000005 L 0.987 0.1635000000000001 Q 0.981 0.1815000000000001 0.981 0.20700000000000007 L 0.981 0.2250000000000001 Q 0.981 0.2400000000000001 0.9742500000000001 0.25650000000000006 Q 0.9675 0.27300000000000013 0.9570000000000001 0.27300000000000013 Q 0.9465 0.27300000000000013 0.9405 0.25875000000000004 Q 0.9345 0.24450000000000005 0.9285 0.21150000000000013 Q 0.9225 0.1785000000000001 0.891 0.1605000000000001 Q 0.8595 0.14250000000000007 0.7905 0.14250000000000007 L 0.639 0.14250000000000007 Q 0.6015 0.14250000000000007 0.58725 0.15150000000000008 Q 0.5730000000000001 0.1605000000000001 0.5685 0.19425000000000003 Q 0.5640000000000001 0.2280000000000001 0.5640000000000001 0.31500000000000006 L 0.5640000000000001 0.9045000000000001 Q 0.5640000000000001 0.9570000000000001 0.594 0.9840000000000001 Q 0.624 1.0110000000000001 0.6825 1.0215 Q 0.708 1.026 0.72 1.032 Q 0.732 1.038 0.732 1.0485000000000002 Q 0.732 1.0650000000000002 0.6885 1.0650000000000002 Q 0.633 1.0650000000000002 0.5925 1.0605 Q 0.5445 1.0575 0.513 1.0575 Q 0.47550000000000003 1.0575 0.4215 1.0605 Q 0.3765 1.0650000000000002 0.321 1.0650000000000002 Q 0.2775 1.0650000000000002 0.2775 1.0485000000000002 M 1.023753662109375 1.0395 Q 0.961503662109375 0.9990000000000001 0.927003662109375 0.9247500000000001 Q 0.892503662109375 0.8505 0.892503662109375 0.7530000000000001 Q 0.892503662109375 0.669 0.932253662109375 0.5955000000000001 Q 0.972003662109375 0.5220000000000001 1.0380036621093751 0.47925000000000006 Q 1.104003662109375 0.4365000000000001 1.182003662109375 0.4365000000000001 Q 1.272003662109375 0.4365000000000001 1.329753662109375 0.48975000000000013 Q 1.387503662109375 0.5430000000000001 1.387503662109375 0.6255000000000002 Q 1.387503662109375 0.6720000000000002 1.342503662109375 0.6720000000000002 L 1.026003662109375 0.6720000000000002 Q 1.005003662109375 0.6720000000000002 0.996753662109375 0.6832500000000001 Q 0.988503662109375 0.6945000000000001 0.988503662109375 0.7275 Q 0.988503662109375 0.798 1.019253662109375 0.8580000000000001 Q 1.0500036621093751 0.9180000000000001 1.103253662109375 0.9532500000000002 Q 1.156503662109375 0.9885000000000002 1.2195036621093749 0.9885000000000002 Q 1.3080036621093751 0.9885000000000002 1.3665036621093751 0.921 Q 1.375503662109375 0.9090000000000001 1.3830036621093749 0.9090000000000001 Q 1.3950036621093749 0.9090000000000001 1.3950036621093749 0.9240000000000002 Q 1.3950036621093749 0.9525000000000001 1.368003662109375 0.9870000000000001 Q 1.335003662109375 1.0305000000000002 1.281003662109375 1.05525 Q 1.227003662109375 1.08 1.1670036621093751 1.08 Q 1.086003662109375 1.08 1.023753662109375 1.0395 M 1.165503662109375 0.6255000000000002 Q 1.236003662109375 0.6255000000000002 1.276503662109375 0.6180000000000001 Q 1.288503662109375 0.6165 1.288503662109375 0.5850000000000001 Q 1.288503662109375 0.5415000000000001 1.250253662109375 0.5107500000000001 Q 1.212003662109375 0.4800000000000001 1.159503662109375 0.4800000000000001 Q 1.126503662109375 0.4800000000000001 1.091253662109375 0.5002500000000001 Q 1.056003662109375 0.5205000000000001 1.033503662109375 0.5505000000000001 Q 1.011003662109375 0.5805 1.011003662109375 0.6105 Q 1.011003662109375 0.6255000000000002 1.029003662109375 0.6255000000000002 L 1.165503662109375 0.6255000000000002 M 1.461025634765625 1.0455 Q 1.461025634765625 1.0365000000000002 1.467775634765625 1.03275 Q 1.474525634765625 1.0290000000000001 1.482775634765625 1.026 Q 1.491025634765625 1.0230000000000001 1.495525634765625 1.0215 Q 1.525525634765625 1.0125000000000002 1.542775634765625 0.9997500000000001 Q 1.560025634765625 0.9870000000000001 1.560025634765625 0.9600000000000001 L 1.560025634765625 0.20850000000000013 Q 1.560025634765625 0.15600000000000014 1.545025634765625 0.13200000000000012 Q 1.530025634765625 0.1080000000000001 1.492525634765625 0.09900000000000009 Q 1.479025634765625 0.09600000000000009 1.479025634765625 0.07950000000000013 Q 1.479025634765625 0.06450000000000011 1.491025634765625 0.06150000000000011 Q 1.542025634765625 0.0495000000000001 1.575775634765625 0.03750000000000009 Q 1.609525634765625 0.025500000000000078 1.656025634765625 0.0045000000000001705 Q 1.665025634765625 0 1.669525634765625 0 Q 1.678525634765625 0 1.678525634765625 0.013500000000000068 Q 1.678525634765625 0.02400000000000002 1.671775634765625 0.07425000000000004 Q 1.665025634765625 0.12450000000000006 1.665025634765625 0.21450000000000014 L 1.665025634765625 0.7065000000000001 Q 1.665025634765625 0.7200000000000001 1.672525634765625 0.7200000000000001 Q 1.692025634765625 0.7200000000000001 1.726525634765625 0.6900000000000002 Q 1.828525634765625 0.6015000000000001 1.885525634765625 0.5355000000000001 Q 1.899025634765625 0.5205000000000001 1.899025634765625 0.5130000000000001 Q 1.899025634765625 0.49950000000000006 1.860025634765625 0.49050000000000005 Q 1.849525634765625 0.48750000000000004 1.8457756347656251 0.48450000000000004 Q 1.842025634765625 0.48150000000000004 1.842025634765625 0.47550000000000014 Q 1.842025634765625 0.4680000000000001 1.8510256347656249 0.4627500000000001 Q 1.860025634765625 0.45750000000000013 1.875025634765625 0.45750000000000013 L 1.948525634765625 0.45750000000000013 Q 1.969525634765625 0.45750000000000013 2.032525634765625 0.44700000000000006 Q 2.067025634765625 0.4395000000000001 2.085025634765625 0.4395000000000001 Q 2.1060256347656248 0.4395000000000001 2.1060256347656248 0.4545000000000001 Q 2.1060256347656248 0.4710000000000001 2.068525634765625 0.48150000000000004 Q 2.026525634765625 0.49350000000000005 1.969525634765625 0.5280000000000001 Q 1.9560256347656249 0.5370000000000001 1.895275634765625 0.58725 Q 1.8345256347656251 0.6375000000000002 1.777525634765625 0.687 Q 1.768525634765625 0.6960000000000002 1.768525634765625 0.7020000000000002 Q 1.768525634765625 0.7080000000000001 1.773025634765625 0.7125000000000001 Q 1.824025634765625 0.7755000000000001 1.892275634765625 0.8475000000000001 Q 1.960525634765625 0.9195000000000001 1.993525634765625 0.9495000000000001 Q 2.016025634765625 0.9720000000000001 2.0482756347656252 0.9907500000000001 Q 2.080525634765625 1.0095 2.1060256347656248 1.0185000000000002 Q 2.112025634765625 1.02 2.124775634765625 1.0245000000000002 Q 2.137525634765625 1.0290000000000001 2.144275634765625 1.0335 Q 2.151025634765625 1.038 2.151025634765625 1.0455 Q 2.151025634765625 1.062 2.121025634765625 1.062 L 1.9995256347656252 1.0605 Q 1.897525634765625 1.0575 1.840525634765625 1.0575 Q 1.813525634765625 1.0575 1.813525634765625 1.044 Q 1.813525634765625 1.0290000000000001 1.839025634765625 1.02 Q 1.858525634765625 1.014 1.869025634765625 1.0057500000000001 Q 1.879525634765625 0.9975 1.879525634765625 0.9855 Q 1.879525634765625 0.9780000000000001 1.869025634765625 0.9645000000000001 L 1.687525634765625 0.7590000000000001 Q 1.678525634765625 0.7485000000000002 1.672525634765625 0.7485000000000002 Q 1.665025634765625 0.7485000000000002 1.665025634765625 0.7590000000000001 Q 1.663525634765625 0.7875000000000001 1.663525634765625 0.8550000000000001 Q 1.663525634765625 0.9255000000000001 1.665025634765625 0.9600000000000001 Q 1.665025634765625 0.9885000000000002 1.678525634765625 1.0012500000000002 Q 1.692025634765625 1.014 1.7175256347656251 1.0215 Q 1.7220256347656249 1.0230000000000001 1.731775634765625 1.026 Q 1.741525634765625 1.0290000000000001 1.746775634765625 1.0335 Q 1.7520256347656251 1.038 1.7520256347656251 1.0455 Q 1.7520256347656251 1.0545000000000002 1.740025634765625 1.0582500000000001 Q 1.728025634765625 1.062 1.7175256347656251 1.062 Q 1.680025634765625 1.062 1.662025634765625 1.0575 Q 1.638025634765625 1.0545000000000002 1.612525634765625 1.0545000000000002 Q 1.587025634765625 1.0545000000000002 1.557025634765625 1.0575 Q 1.534525634765625 1.062 1.495525634765625 1.062 Q 1.461025634765625 1.062 1.461025634765625 1.0455 M 2.257516845703125 1.0582500000000001 Q 2.229016845703125 1.038 2.210266845703125 1.0072500000000002 Q 2.191516845703125 0.9765000000000001 2.191516845703125 0.9495000000000001 Q 2.191516845703125 0.9030000000000001 2.216266845703125 0.8760000000000001 Q 2.241016845703125 0.8490000000000001 2.298016845703125 0.8250000000000001 L 2.451016845703125 0.7620000000000001 Q 2.479516845703125 0.7500000000000001 2.485516845703125 0.7410000000000001 Q 2.491516845703125 0.7320000000000001 2.493016845703125 0.7020000000000002 L 2.496016845703125 0.6060000000000001 Q 2.497516845703125 0.5655000000000001 2.473516845703125 0.5377500000000001 Q 2.449516845703125 0.5100000000000001 2.407516845703125 0.5100000000000001 Q 2.385016845703125 0.5100000000000001 2.362516845703125 0.5175000000000001 Q 2.340016845703125 0.5250000000000001 2.325016845703125 0.5370000000000001 Q 2.310016845703125 0.5475000000000001 2.310016845703125 0.5805 L 2.311516845703125 0.6075000000000002 Q 2.311516845703125 0.6195000000000002 2.273266845703125 0.63975 Q 2.235016845703125 0.6600000000000001 2.212516845703125 0.6600000000000001 Q 2.205016845703125 0.6600000000000001 2.200516845703125 0.6562500000000001 Q 2.196016845703125 0.6525000000000001 2.196016845703125 0.6465000000000001 Q 2.196016845703125 0.6225 2.211766845703125 0.5947500000000001 Q 2.227516845703125 0.5670000000000002 2.256016845703125 0.5430000000000001 Q 2.307016845703125 0.49650000000000005 2.370766845703125 0.46650000000000014 Q 2.4345168457031248 0.4365000000000001 2.479516845703125 0.4365000000000001 Q 2.533516845703125 0.4365000000000001 2.568766845703125 0.4747500000000001 Q 2.604016845703125 0.5130000000000001 2.602516845703125 0.5700000000000001 L 2.595016845703125 0.9300000000000002 Q 2.593516845703125 0.9615000000000001 2.608516845703125 0.9810000000000001 Q 2.623516845703125 1.0005000000000002 2.649016845703125 1.0005000000000002 Q 2.686516845703125 1.0005000000000002 2.7045168457031252 0.9840000000000001 Q 2.712016845703125 0.9765000000000001 2.716516845703125 0.9765000000000001 Q 2.724016845703125 0.9765000000000001 2.7285168457031252 0.9810000000000001 Q 2.733016845703125 0.9855 2.733016845703125 0.9930000000000001 Q 2.733016845703125 0.9990000000000001 2.7285168457031252 1.00875 Q 2.724016845703125 1.0185000000000002 2.716516845703125 1.026 Q 2.6925168457031248 1.05 2.664766845703125 1.0642500000000001 Q 2.637016845703125 1.0785 2.613016845703125 1.0785 Q 2.544016845703125 1.0785 2.503516845703125 1.0005000000000002 L 2.499016845703125 1.0005000000000002 Q 2.449516845703125 1.0410000000000001 2.404516845703125 1.0597500000000002 Q 2.359516845703125 1.0785 2.311516845703125 1.0785 Q 2.286016845703125 1.0785 2.257516845703125 1.0582500000000001 M 2.4705168457031252 0.9705000000000001 Q 2.479516845703125 0.9615000000000001 2.484016845703125 0.9480000000000001 Q 2.488516845703125 0.9345000000000001 2.490016845703125 0.9090000000000001 L 2.493016845703125 0.8355000000000001 L 2.493016845703125 0.8265000000000001 Q 2.493016845703125 0.8145000000000001 2.490016845703125 0.8092500000000001 Q 2.487016845703125 0.804 2.479516845703125 0.804 Q 2.4705168457031252 0.804 2.449516845703125 0.8115000000000001 Q 2.374516845703125 0.8385000000000001 2.341516845703125 0.8685 Q 2.308516845703125 0.8985000000000001 2.308516845703125 0.927 Q 2.308516845703125 0.9645000000000001 2.330266845703125 0.9855 Q 2.352016845703125 1.0065000000000002 2.382016845703125 1.0065000000000002 Q 2.4345168457031248 1.0065000000000002 2.4705168457031252 0.9705000000000001 M 2.7629970703125 1.4715000000000003 Q 2.7629970703125 1.461 2.7712470703125 1.45575 Q 2.7794970703125 1.4505000000000001 2.7974970703125 1.4445000000000001 Q 2.8304970703125 1.4340000000000002 2.8462470703125 1.4242500000000002 Q 2.8619970703125 1.4145 2.8619970703125 1.3875000000000002 L 2.8619970703125 0.6270000000000001 Q 2.8619970703125 0.6015000000000001 2.8439970703125 0.56325 Q 2.8259970703125 0.5250000000000001 2.7929970703125 0.5175000000000001 Q 2.7869970703125 0.5160000000000001 2.7839970703125 0.5107500000000001 Q 2.7809970703125 0.5055000000000001 2.7809970703125 0.4980000000000001 Q 2.7809970703125 0.4830000000000001 2.7914970703125 0.4800000000000001 Q 2.8574970703125 0.4650000000000001 2.9069970703125 0.4447500000000001 Q 2.9564970703125 0.4245000000000001 2.9654970703125 0.42000000000000004 L 2.9684970703125 0.4185000000000001 Q 2.9714970703125 0.4185000000000001 2.9744970703125 0.42300000000000004 Q 2.9774970703125 0.4275000000000001 2.9774970703125 0.43200000000000005 L 2.9744970703125 0.4710000000000001 Q 2.9699970703125 0.4980000000000001 2.9699970703125 0.5220000000000001 Q 2.9699970703125 0.5340000000000001 2.9714970703125 0.5355000000000001 Q 2.9879970703125 0.5190000000000001 3.0292470703125 0.49575000000000014 Q 3.0704970703125 0.47250000000000014 3.1207470703125 0.4545000000000001 Q 3.1709970703125 0.4365000000000001 3.2144970703125 0.4365000000000001 Q 3.2879970703125 0.4365000000000001 3.3442470703125 0.4770000000000001 Q 3.4004970703125 0.5175000000000001 3.4304970703125 0.5827500000000001 Q 3.4604970703125 0.6480000000000001 3.4604970703125 0.7200000000000001 Q 3.4604970703125 0.8085000000000001 3.4154970703125 0.89175 Q 3.3704970703125 0.9750000000000001 3.2924970703125 1.02675 Q 3.2144970703125 1.0785 3.1229970703125 1.0785 Q 3.0899970703125 1.0785 3.0419970703125 1.0642500000000001 Q 2.9939970703125 1.05 2.9729970703125 1.0305000000000002 Q 2.9699970703125 1.0305000000000002 2.9684970703125 1.0605 Q 2.9669970703125 1.0905 2.9669970703125 1.1070000000000002 L 2.9669970703125 1.3875000000000002 Q 2.9669970703125 1.4100000000000001 2.9864970703125 1.4212500000000001 Q 3.0059970703125 1.4325 3.0262470703125 1.43775 Q 3.0464970703125 1.443 3.0539970703125 1.4445000000000001 Q 3.0719970703125 1.4505000000000001 3.0802470703125 1.45575 Q 3.0884970703125 1.461 3.0884970703125 1.4715000000000003 Q 3.0884970703125 1.485 3.0554970703125 1.485 Q 3.0149970703125 1.485 2.9804970703125 1.4805000000000001 Q 2.9414970703125 1.4775 2.9144970703125 1.4775 Q 2.8904970703125 1.4775 2.8574970703125 1.4805000000000001 Q 2.8334970703125 1.485 2.7944970703125 1.485 Q 2.7629970703125 1.485 2.7629970703125 1.4715000000000003 M 3.2272470703125 1.0057500000000001 Q 3.2729970703125 0.9795000000000001 3.3067470703125 0.9195000000000001 Q 3.3404970703125 0.8595000000000002 3.3404970703125 0.7680000000000001 Q 3.3404970703125 0.6165 3.2752470703125 0.5602500000000001 Q 3.2099970703125003 0.5040000000000001 3.1364970703125 0.5040000000000001 Q 3.1034970703124998 0.5040000000000001 3.0644970703125 0.5182500000000001 Q 3.0254970703125 0.5325000000000001 2.9984970703125002 0.552 Q 2.9714970703125 0.5715000000000001 2.9714970703125 0.5820000000000001 Q 2.9714970703125 0.6495000000000001 2.9684970703125 0.7395 Q 2.9669970703125 0.7695000000000001 2.9669970703125 0.8085000000000001 Q 2.9669970703125 0.8670000000000001 2.9939970703125 0.9187500000000001 Q 3.0209970703125 0.9705000000000001 3.0629970703125 1.0012500000000002 Q 3.1049970703125 1.032 3.1454970703125 1.032 Q 3.1814970703125 1.032 3.2272470703125 1.0057500000000001 M 3.713219970703125 1.0395 Q 3.644969970703125 1.0005000000000002 3.605219970703125 0.9315000000000001 Q 3.565469970703125 0.8625 3.565469970703125 0.7770000000000001 Q 3.565469970703125 0.6945000000000001 3.609719970703125 0.6150000000000001 Q 3.653969970703125 0.5355000000000001 3.729719970703125 0.4860000000000001 Q 3.805469970703125 0.4365000000000001 3.8939699707031252 0.4365000000000001 Q 3.979469970703125 0.4365000000000001 4.049969970703125 0.4777500000000001 Q 4.120469970703125 0.5190000000000001 4.161719970703125 0.5887500000000001 Q 4.202969970703125 0.6585000000000001 4.202969970703125 0.7380000000000001 Q 4.202969970703125 0.8280000000000001 4.163969970703125 0.9060000000000001 Q 4.124969970703125 0.9840000000000001 4.048469970703125 1.03125 Q 3.971969970703125 1.0785 3.863969970703125 1.0785 Q 3.781469970703125 1.0785 3.713219970703125 1.0395 M 4.049969970703125 0.9510000000000001 Q 4.079969970703125 0.8925000000000001 4.079969970703125 0.774 Q 4.079969970703125 0.7020000000000002 4.052969970703125 0.6345000000000001 Q 4.025969970703125 0.5670000000000002 3.977969970703125 0.5250000000000001 Q 3.929969970703125 0.4830000000000001 3.868469970703125 0.4830000000000001 Q 3.824969970703125 0.4830000000000001 3.793469970703125 0.49650000000000005 Q 3.761969970703125 0.5100000000000001 3.736469970703125 0.5430000000000001 Q 3.709469970703125 0.5775000000000001 3.698969970703125 0.62775 Q 3.688469970703125 0.6780000000000002 3.688469970703125 0.7425000000000002 Q 3.688469970703125 0.8175000000000001 3.715469970703125 0.8842500000000001 Q 3.742469970703125 0.9510000000000001 3.789719970703125 0.9922500000000001 Q 3.836969970703125 1.0335 3.895469970703125 1.0335 Q 4.007969970703125 1.0335 4.049969970703125 0.9510000000000001" fill="#102036" fill-rule="nonzero"></path></g><g></g></g><defs><clipPath id="SvgjsClipPath3243"><path d=" M -0.05098659154746921 -2.600134791865792 h 4.357435829579313 v 2.4301347918657923 h -4.357435829579313 Z"></path></clipPath><clipPath id="SvgjsClipPath32419ddb42c2-1323-49e9-a10a-13b27a1e7bb9"><path d=" M -0.05098659154746921 -2.600134791865792 L 4.306449238031844 -2.600134791865792 L 4.306449238031844 -0.16999999999999993 L -0.05098659154746921 -0.16999999999999993 Z"></path></clipPath></defs></svg>