<svg xmlns="http://www.w3.org/2000/svg" version="1.1" xmlns:xlink="http://www.w3.org/1999/xlink" xmlns:svgjs="http://svgjs.dev/svgjs" viewBox="0 0 7.55629541015625 8.926581554771928"><g transform="matrix(0.8571428571428571,0,0,0.8571428571428571,1.0794707728794646,6.0658796287056305)"><g transform="matrix(1,0,0,1,0,0)" clip-path="url(#SvgjsClipPath98863)"><g clip-path="url(#SvgjsClipPath98861da77ef39-9a36-4bbd-ab93-3ed48fbf0d91)"><path d=" M 3.291959654788384 -0.726071910263816 C 4.62801484395946 -0.726071910263816 5.711092073025858 -1.8167292075463273 5.711092073025858 -3.1624639802307852 C 5.711092073025858 -4.508198752915243 4.62801484395946 -5.598883316630187 3.291959654788384 -5.598883316630187 C 1.955904465617308 -5.598883316630187 0.8728272365509102 -4.508062420753084 0.8728272365509102 -3.1624639802307852 C 0.8728272365509102 -1.8168655397084872 1.95593173204974 -0.726071910263816 3.291959654788384 -0.726071910263816 Z M 3.291959654788384 -0.6434818864270975 C 4.673304388229116 -0.6434818864270975 5.793082235349072 -1.7712760646820782 5.793082235349072 -3.1624639802307852 C 5.793082235349072 -4.553651895779493 4.673304388229116 -5.681473340466905 3.291959654788384 -5.681473340466905 C 1.9106149213476515 -5.681473340466905 0.7908370742276974 -4.553679162211925 0.7908370742276974 -3.1624639802307852 C 0.7908370742276974 -1.7712487982496463 1.9105603884827875 -0.6434818864270975 3.291959654788384 -0.6434818864270975 Z" fill="#3361e1" transform="matrix(1,0,0,1,0,0)" fill-rule="evenodd"></path></g><g clip-path="url(#SvgjsClipPath98861da77ef39-9a36-4bbd-ab93-3ed48fbf0d91)"><path d=" M 2.922935758252846 -0.6434818864270975 C 4.258990947423921 -0.6434818864270975 5.34206817649032 -1.7341391837096092 5.34206817649032 -3.079873956394067 C 5.34206817649032 -4.425608729078526 4.258990947423923 -5.516293292793469 2.922935758252846 -5.516293292793469 C 1.58688056908177 -5.516293292793469 0.5038306064478046 -4.425472396916365 0.5038306064478046 -3.079873956394067 C 0.5038306064478046 -1.734275515871769 1.5869078355142021 -0.6434818864270975 2.922935758252846 -0.6434818864270975 Z M 2.922935758252846 -0.5608918625903803 C 4.304280491693579 -0.5608918625903803 5.424085605245965 -1.6886860408453601 5.424085605245965 -3.079873956394067 C 5.424085605245965 -4.471061871942775 4.304280491693579 -5.598883316630187 2.922935758252846 -5.598883316630187 C 1.5415910248121143 -5.598883316630187 0.42181317769215987 -4.4710891383752065 0.42181317769215987 -3.079873956394067 C 0.42181317769215987 -1.6886587744129278 1.541618291244546 -0.5608373297255151 2.922935758252846 -0.5608373297255151 Z" fill="#3361e1" transform="matrix(1,0,0,1,0,0)" fill-rule="evenodd"></path></g><g clip-path="url(#SvgjsClipPath98861da77ef39-9a36-4bbd-ab93-3ed48fbf0d91)"><path d=" M 3.373977083544029 -0.35440316978236863 C 4.710032272715106 -0.35440316978236863 5.793082235349072 -1.4452240656594717 5.793082235349072 -2.7908225061817693 C 5.793082235349072 -4.136420946704067 4.710005006282673 -5.227214576148739 3.373977083544029 -5.227214576148739 C 2.0379491608053844 -5.227214576148739 0.9548446653065551 -4.1363936802716355 0.9548446653065551 -2.7908225061817697 C 0.9548446653065551 -1.445251332091904 2.0379218943729525 -0.35440316978236863 3.373977083544029 -0.35440316978236863 Z M 3.373977083544029 -0.2718131459456501 C 4.755294550552328 -0.2718131459456501 5.875099664104715 -1.3996073242006308 5.875099664104715 -2.7908225061817697 C 5.875099664104715 -4.182037688162909 4.75529455055233 -5.309831866417889 3.373977083544029 -5.309831866417889 C 1.9926596165357282 -5.309831866417889 0.8728272365509101 -4.182010421730476 0.8728272365509101 -2.7908225061817697 C 0.8728272365509101 -1.3996345906330627 1.9926323501032963 -0.2718131459456501 3.373977083544029 -0.2718131459456501 Z" fill="#3361e1" transform="matrix(1,0,0,1,0,0)" fill-rule="evenodd"></path></g><path d=" M 2.8085607093266765 -1.6133216216031396 C 2.865832667859776 -1.8872309885005736 2.920614541239263 -2.157405227667588 2.9729063294651366 -2.4238443391041837 C 2.9953170958476543 -2.53589817101677 3.0177278622301715 -2.652932173236583 3.040138628612689 -2.774946345763622 C 3.062549394995206 -2.8969605182906606 3.08433764008932 -3.0171071269524896 3.105503363895031 -3.135386171749109 C 3.1266690877007415 -3.2536652165457287 3.14534472635284 -3.3682091336119284 3.1615302798513243 -3.4790179229477083 C 3.1777158333498092 -3.5898267122834886 3.192033822983084 -3.69129768229322 3.2044842487511493 -3.7834308329769026 C 3.1472122902180493 -3.7909010884377414 3.089317810396546 -3.7933911735913544 3.0308008092866396 -3.7909010884377414 C 2.9722838081767335 -3.7884110032841285 2.91438932835523 -3.7958812587449677 2.8571173698221304 -3.8133118548202587 C 2.8596074549757438 -3.853153217278068 2.86085249755255 -3.899219792619909 2.86085249755255 -3.9515115808457826 C 2.86085249755255 -4.003803369071656 2.8620975401293567 -4.056095157297531 2.8645876252829696 -4.108386945523404 C 2.8670777104365825 -4.165658904056504 2.8695677955901955 -4.226665990320023 2.8720578807438084 -4.291408204313963 C 2.9368000947377477 -4.286428034006736 3.0015423087316866 -4.282692906276316 3.066284522725626 -4.280202821122703 C 3.1310267367195648 -4.27771273596909 3.1957689507135036 -4.276467693392284 3.2605111647074425 -4.276467693392284 C 3.3875055075417078 -4.276467693392284 3.5101422013571497 -4.279580299834301 3.628421246153769 -4.285805512718333 C 3.7467002909503884 -4.292030725602365 3.856264037709362 -4.299500981063205 3.95711248643069 -4.308216279100851 C 4.057960935152018 -4.316931577138496 4.156941820008137 -4.327514439041352 4.254055140999045 -4.339964864809417 L 4.21296873596443 -4.138267967366761 C 4.200518310196365 -4.080996008833661 4.188690405716703 -4.022479007723755 4.177485022525444 -3.962716964037041 C 4.166279639334185 -3.9029549203503286 4.15569677743133 -3.8519081747012613 4.145736436816877 -3.8095767270898397 C 4.090954563437391 -3.7946362161681613 4.035550168769501 -3.7840533542653056 3.979523252813207 -3.7778281413812733 C 3.923496336856914 -3.7716029284972405 3.868091942189024 -3.7635101517479983 3.813310068809537 -3.753549811133546 C 3.7958794727342458 -3.6688869159107025 3.7772038340821483 -3.5748862013618106 3.757283152853244 -3.4715476674868695 C 3.7373624716243397 -3.3682091336119284 3.7180643116838383 -3.2611354720065675 3.6993886730317405 -3.1503266826707876 C 3.680713034379643 -3.039517893335007 3.662659917015948 -2.926841540134017 3.645229320940657 -2.8122976230678174 C 3.6277987248653663 -2.6977537060016177 3.610368128790075 -2.5881899592426443 3.5929375327147834 -2.4836063827908967 C 3.5530961702569748 -2.2370879525832055 3.515744892952779 -1.9818542243378694 3.4808837008021962 -1.7179051980548872 L 2.8085607093266765 -1.6133216216031396" fill="#3361e1" transform="matrix(1,0,0,1,0,0)" fill-rule="nonzero"></path></g><g><path d=" M 0.5685 1.068 L 0.5685 0.10050000000000003 L 0.9705 0.10050000000000003 L 0.9705 0.018000000000000016 L 0.03 0.018000000000000016 L 0.03 0.10050000000000003 L 0.432 0.10050000000000003 L 0.432 1.068 L 0.5685 1.068 M 1.1789882812499999 0.018000000000000016 L 1.1789882812499999 1.068 L 1.85698828125 1.068 L 1.85698828125 0.9855 L 1.31548828125 0.9855 L 1.31548828125 0.546 L 1.7804882812499998 0.546 L 1.7804882812499998 0.4770000000000001 L 1.31548828125 0.4770000000000001 L 1.31548828125 0.10050000000000003 L 1.85698828125 0.10050000000000003 L 1.85698828125 0.018000000000000016 L 1.1789882812499999 0.018000000000000016 M 2.080472900390625 1.068 L 2.216972900390625 1.068 L 2.216972900390625 0.6990000000000001 L 2.3864729003906247 0.5175000000000001 L 2.7854729003906247 1.068 L 2.941472900390625 1.068 L 2.473472900390625 0.4245000000000001 L 2.854472900390625 0.018000000000000016 L 2.779472900390625 0.018000000000000016 L 2.216972900390625 0.609 L 2.216972900390625 0.018000000000000016 L 2.080472900390625 0.018000000000000016 L 2.080472900390625 1.068 M 3.748471435546875 0.7590000000000001 L 3.8924714355468746 1.068 L 4.037971435546875 1.068 L 3.548971435546875 0.018000000000000016 L 3.4739714355468747 0.018000000000000016 L 3.0299714355468748 1.068 L 3.0989714355468747 1.068 L 3.230971435546875 0.7590000000000001 L 3.748471435546875 0.7590000000000001 M 3.716971435546875 0.6915 L 3.259471435546875 0.6915 L 3.4754714355468748 0.18600000000000005 L 3.481471435546875 0.18600000000000005 L 3.716971435546875 0.6915 M 4.397963378906249 0.6300000000000001 Q 4.43696337890625 0.6405000000000001 4.48196337890625 0.6472500000000001 Q 4.52696337890625 0.654 4.58096337890625 0.654 Q 4.67246337890625 0.654 4.74296337890625 0.6285000000000001 Q 4.81346337890625 0.603 4.86071337890625 0.5587500000000001 Q 4.90796337890625 0.5145000000000001 4.93196337890625 0.4567500000000001 Q 4.95596337890625 0.399 4.95596337890625 0.3330000000000001 Q 4.95596337890625 0.27 4.93496337890625 0.21225000000000005 Q 4.913963378906249 0.15450000000000008 4.8712133789062495 0.11175000000000002 Q 4.82846337890625 0.06900000000000006 4.76396337890625 0.043500000000000094 Q 4.69946337890625 0.018000000000000016 4.6124633789062495 0.018000000000000016 L 4.2614633789062495 0.018000000000000016 L 4.2614633789062495 1.068 L 4.397963378906249 1.068 L 4.397963378906249 0.6300000000000001 M 4.397963378906249 0.08400000000000007 L 4.55546337890625 0.08400000000000007 Q 4.61846337890625 0.08400000000000007 4.66646337890625 0.10650000000000004 Q 4.71446337890625 0.129 4.74596337890625 0.16575000000000006 Q 4.7774633789062495 0.2025 4.79321337890625 0.24825000000000008 Q 4.80896337890625 0.29400000000000004 4.80896337890625 0.3390000000000001 Q 4.80896337890625 0.38250000000000006 4.79471337890625 0.4267500000000001 Q 4.78046337890625 0.4710000000000001 4.74896337890625 0.507 Q 4.71746337890625 0.543 4.66946337890625 0.5655 Q 4.62146337890625 0.5880000000000001 4.55396337890625 0.5880000000000001 Q 4.50746337890625 0.5880000000000001 4.46846337890625 0.58425 Q 4.42946337890625 0.5805 4.397963378906249 0.5685 L 4.397963378906249 0.08400000000000007 M 5.074427490234375 0.543 Q 5.074427490234375 0.627 5.106677490234374 0.7222500000000001 Q 5.138927490234375 0.8175000000000001 5.207927490234375 0.8985000000000001 Q 5.276927490234375 0.9795 5.383427490234375 1.03275 Q 5.489927490234375 1.086 5.638427490234375 1.086 Q 5.738927490234374 1.086 5.820677490234375 1.06125 Q 5.902427490234375 1.0365 5.967677490234375 0.9945 Q 6.032927490234375 0.9525 6.080927490234375 0.89775 Q 6.128927490234375 0.8430000000000001 6.159677490234374 0.7822500000000001 Q 6.1904274902343746 0.7215 6.206177490234374 0.66 Q 6.221927490234375 0.5985 6.221927490234375 0.543 Q 6.221927490234375 0.4590000000000001 6.187427490234374 0.36375 Q 6.152927490234375 0.26850000000000007 6.080927490234375 0.1875 Q 6.008927490234375 0.10650000000000004 5.898677490234375 0.05325000000000002 Q 5.788427490234374 0 5.638427490234375 0 Q 5.489927490234375 0 5.383427490234375 0.05249999999999999 Q 5.276927490234375 0.1050000000000001 5.207927490234375 0.18525000000000003 Q 5.138927490234375 0.26550000000000007 5.106677490234374 0.36150000000000004 Q 5.074427490234375 0.4575 5.074427490234375 0.543 M 5.221427490234375 0.543 Q 5.221427490234375 0.43800000000000006 5.253677490234375 0.35025000000000006 Q 5.285927490234375 0.26250000000000007 5.342177490234374 0.1995 Q 5.398427490234375 0.13650000000000007 5.474927490234375 0.10125000000000006 Q 5.551427490234374 0.06600000000000006 5.641427490234375 0.06600000000000006 Q 5.729927490234375 0.06600000000000006 5.808677490234375 0.10125000000000006 Q 5.887427490234375 0.13650000000000007 5.946677490234375 0.1995 Q 6.005927490234375 0.26250000000000007 6.040427490234375 0.35025000000000006 Q 6.074927490234375 0.43800000000000006 6.074927490234375 0.543 Q 6.074927490234375 0.6480000000000001 6.040427490234375 0.7357500000000001 Q 6.005927490234375 0.8235000000000001 5.946677490234375 0.8865000000000001 Q 5.887427490234375 0.9495 5.808677490234375 0.98475 Q 5.729927490234375 1.02 5.641427490234375 1.02 Q 5.551427490234374 1.02 5.474927490234375 0.98475 Q 5.398427490234375 0.9495 5.342177490234374 0.8865000000000001 Q 5.285927490234375 0.8235000000000001 5.253677490234375 0.7357500000000001 Q 5.221427490234375 0.6480000000000001 5.221427490234375 0.543" fill="#000000" fill-rule="nonzero"></path></g><g><path d=" M 0.3569869995117185 1.9159124999999997 L 0.5452369995117186 1.9159124999999997 L 0.5452369995117186 1.9586624999999998 L 0.3044869995117185 1.9586624999999998 L 0.3044869995117185 1.4344124999999996 L 0.3569869995117185 1.4344124999999996 L 0.3569869995117185 1.9159124999999997 M 0.6746273803710936 1.4344124999999996 L 0.6746273803710936 1.9586624999999998 L 0.6221273803710936 1.9586624999999998 L 0.6221273803710936 1.4344124999999996 L 0.6746273803710936 1.4344124999999996 M 1.2112553100585937 1.4344124999999996 L 1.0125053100585937 1.9586624999999998 L 0.9525053100585936 1.9586624999999998 L 0.7537553100585936 1.4344124999999996 L 0.8107553100585936 1.4344124999999996 L 0.9825053100585937 1.9016624999999998 L 1.1557553100585936 1.4344124999999996 L 1.2112553100585937 1.4344124999999996 M 1.3443777465820312 1.4344124999999996 L 1.3443777465820312 1.9586624999999998 L 1.2918777465820312 1.9586624999999998 L 1.2918777465820312 1.4344124999999996 L 1.3443777465820312 1.4344124999999996 M 1.8607556762695312 1.9586624999999998 L 1.8082556762695312 1.9586624999999998 L 1.5180056762695313 1.5176624999999997 L 1.5180056762695313 1.9586624999999998 L 1.4655056762695313 1.9586624999999998 L 1.4655056762695313 1.4344124999999996 L 1.5180056762695313 1.4344124999999996 L 1.8082556762695312 1.8746624999999997 L 1.8082556762695312 1.4344124999999996 L 1.8607556762695312 1.4344124999999996 L 1.8607556762695312 1.9586624999999998 M 2.394361267089844 1.5874124999999997 Q 2.371861267089844 1.5356624999999997 2.3257362670898436 1.5060374999999997 Q 2.2796112670898436 1.4764124999999997 2.217361267089844 1.4764124999999997 Q 2.158861267089844 1.4764124999999997 2.112361267089844 1.5034124999999998 Q 2.065861267089844 1.5304124999999997 2.038861267089844 1.5802874999999998 Q 2.0118612670898437 1.6301624999999997 2.0118612670898437 1.6961624999999998 Q 2.0118612670898437 1.7621624999999996 2.038861267089844 1.8124124999999998 Q 2.065861267089844 1.8626624999999997 2.112361267089844 1.8896624999999998 Q 2.158861267089844 1.9166624999999997 2.217361267089844 1.9166624999999997 Q 2.272111267089844 1.9166624999999997 2.3159862670898437 1.8930374999999997 Q 2.359861267089844 1.8694124999999997 2.3864862670898437 1.8255374999999998 Q 2.413111267089844 1.7816624999999997 2.416861267089844 1.7231624999999997 L 2.196361267089844 1.7231624999999997 L 2.196361267089844 1.6804124999999996 L 2.472361267089844 1.6804124999999996 L 2.472361267089844 1.7186624999999998 Q 2.4686112670898437 1.7876624999999997 2.4348612670898437 1.8435374999999998 Q 2.401111267089844 1.8994124999999997 2.344486267089844 1.9316624999999998 Q 2.287861267089844 1.9639124999999997 2.217361267089844 1.9639124999999997 Q 2.144611267089844 1.9639124999999997 2.085361267089844 1.9297874999999998 Q 2.026111267089844 1.8956624999999998 1.9919862670898438 1.8345374999999997 Q 1.9578612670898439 1.7734124999999998 1.9578612670898439 1.6961624999999998 Q 1.9578612670898439 1.6189124999999998 1.9919862670898438 1.5577874999999999 Q 2.026111267089844 1.4966624999999998 2.085361267089844 1.4625374999999998 Q 2.144611267089844 1.4284124999999999 2.217361267089844 1.4284124999999999 Q 2.301361267089844 1.4284124999999999 2.3643612670898437 1.4704124999999997 Q 2.427361267089844 1.5124124999999997 2.455861267089844 1.5874124999999997 L 2.394361267089844 1.5874124999999997 M 2.830088195800781 1.9159124999999997 L 3.018338195800781 1.9159124999999997 L 3.018338195800781 1.9586624999999998 L 2.777588195800781 1.9586624999999998 L 2.777588195800781 1.4344124999999996 L 2.830088195800781 1.4344124999999996 L 2.830088195800781 1.9159124999999997 M 3.147728576660156 1.4344124999999996 L 3.147728576660156 1.9586624999999998 L 3.095228576660156 1.9586624999999998 L 3.095228576660156 1.4344124999999996 L 3.147728576660156 1.4344124999999996 M 3.548606506347656 1.9586624999999998 L 3.321356506347656 1.7164124999999997 L 3.321356506347656 1.9586624999999998 L 3.2688565063476562 1.9586624999999998 L 3.2688565063476562 1.4344124999999996 L 3.321356506347656 1.4344124999999996 L 3.321356506347656 1.6796624999999996 L 3.548606506347656 1.4344124999999996 L 3.615356506347656 1.4344124999999996 L 3.370106506347656 1.6961624999999998 L 3.617606506347656 1.9586624999999998 L 3.548606506347656 1.9586624999999998 M 3.749226379394531 1.4771624999999997 L 3.749226379394531 1.6729124999999998 L 3.9479763793945315 1.6729124999999998 L 3.9479763793945315 1.7164124999999997 L 3.749226379394531 1.7164124999999997 L 3.749226379394531 1.9151624999999997 L 3.9704763793945315 1.9151624999999997 L 3.9704763793945315 1.9586624999999998 L 3.6967263793945313 1.9586624999999998 L 3.6967263793945313 1.4336624999999996 L 3.9704763793945315 1.4336624999999996 L 3.9704763793945315 1.4771624999999997 L 3.749226379394531 1.4771624999999997 M 4.586959533691406 1.8341624999999997 L 4.348459533691407 1.8341624999999997 L 4.302709533691407 1.9586624999999998 L 4.247209533691406 1.9586624999999998 L 4.4384595336914066 1.4411625 L 4.497709533691406 1.4411625 L 4.688209533691406 1.9586624999999998 L 4.632709533691407 1.9586624999999998 L 4.586959533691406 1.8341624999999997 M 4.571209533691406 1.7906624999999998 L 4.467709533691407 1.5071624999999997 L 4.364209533691406 1.7906624999999998 L 4.571209533691406 1.7906624999999998 M 5.2611828002929695 1.9586624999999998 L 5.033932800292969 1.7164124999999997 L 5.033932800292969 1.9586624999999998 L 4.981432800292969 1.9586624999999998 L 4.981432800292969 1.4344124999999996 L 5.033932800292969 1.4344124999999996 L 5.033932800292969 1.6796624999999996 L 5.2611828002929695 1.4344124999999996 L 5.327932800292969 1.4344124999999996 L 5.082682800292969 1.6961624999999998 L 5.330182800292969 1.9586624999999998 L 5.2611828002929695 1.9586624999999998 M 5.461802673339844 1.4344124999999996 L 5.461802673339844 1.9586624999999998 L 5.409302673339844 1.9586624999999998 L 5.409302673339844 1.4344124999999996 L 5.461802673339844 1.4344124999999996 M 5.887430603027344 1.4659124999999997 Q 5.949680603027344 1.4974124999999998 5.982680603027344 1.5566624999999998 Q 6.015680603027344 1.6159124999999999 6.015680603027344 1.6976624999999999 Q 6.015680603027344 1.7786624999999998 5.982680603027344 1.8375374999999998 Q 5.949680603027344 1.8964124999999998 5.887430603027344 1.9275374999999997 Q 5.825180603027344 1.9586624999999998 5.738180603027344 1.9586624999999998 L 5.582930603027344 1.9586624999999998 L 5.582930603027344 1.4344124999999996 L 5.738180603027344 1.4344124999999996 Q 5.825180603027344 1.4344124999999996 5.887430603027344 1.4659124999999997 M 5.9050556030273444 1.8577874999999997 Q 5.962430603027344 1.8004124999999997 5.962430603027344 1.6976624999999999 Q 5.962430603027344 1.5941624999999997 5.9050556030273444 1.5360374999999997 Q 5.847680603027344 1.4779124999999997 5.738180603027344 1.4779124999999997 L 5.635430603027344 1.4779124999999997 L 5.635430603027344 1.9151624999999997 L 5.738180603027344 1.9151624999999997 Q 5.847680603027344 1.9151624999999997 5.9050556030273444 1.8577874999999997" fill="#3361e1" fill-rule="nonzero"></path></g></g><defs><clipPath id="SvgjsClipPath98863"><path d=" M 0.42181317769215987 -5.703286486412555 h 5.453286486412555 v 5.453286486412555 h -5.453286486412555 Z"></path></clipPath><clipPath id="SvgjsClipPath98861da77ef39-9a36-4bbd-ab93-3ed48fbf0d91"><path d=" M 0.42181317769215987 -5.681473340466905 L 5.875099664104715 -5.681473340466905 L 5.875099664104715 -0.2718131459456501 L 0.42181317769215987 -0.2718131459456501 Z"></path></clipPath></defs></svg>